<mxfile host="app.diagrams.net" modified="2023-11-02T02:04:15.689Z" agent="Mozilla/5.0 (Windows NT 10.0; Win64; x64; rv:109.0) Gecko/20100101 Firefox/119.0" etag="gc_SvN_MYT3HbFEgyx42" version="22.0.8" type="google">
  <diagram name="Page-1" id="VaCrDtu8h00vSYhGNHmb">
    <mxGraphModel dx="732" dy="1133" grid="1" gridSize="10" guides="1" tooltips="1" connect="1" arrows="1" fold="1" page="1" pageScale="1" pageWidth="850" pageHeight="1100" math="0" shadow="0">
      <root>
        <mxCell id="0" />
        <mxCell id="1" parent="0" />
        <mxCell id="WOW-F0cY4UlkzFkeSrk8-5" style="edgeStyle=orthogonalEdgeStyle;rounded=0;orthogonalLoop=1;jettySize=auto;html=1;" edge="1" parent="1" source="WOW-F0cY4UlkzFkeSrk8-3" target="WOW-F0cY4UlkzFkeSrk8-4">
          <mxGeometry relative="1" as="geometry" />
        </mxCell>
        <mxCell id="WOW-F0cY4UlkzFkeSrk8-6" value="True" style="edgeLabel;html=1;align=center;verticalAlign=middle;resizable=0;points=[];" vertex="1" connectable="0" parent="WOW-F0cY4UlkzFkeSrk8-5">
          <mxGeometry x="-0.4057" y="-2" relative="1" as="geometry">
            <mxPoint x="39" y="2" as="offset" />
          </mxGeometry>
        </mxCell>
        <mxCell id="WOW-F0cY4UlkzFkeSrk8-8" style="edgeStyle=orthogonalEdgeStyle;rounded=0;orthogonalLoop=1;jettySize=auto;html=1;entryX=0.5;entryY=0;entryDx=0;entryDy=0;" edge="1" parent="1" target="WOW-F0cY4UlkzFkeSrk8-7">
          <mxGeometry relative="1" as="geometry">
            <mxPoint x="410" y="225" as="sourcePoint" />
          </mxGeometry>
        </mxCell>
        <mxCell id="WOW-F0cY4UlkzFkeSrk8-9" value="False" style="edgeLabel;html=1;align=center;verticalAlign=middle;resizable=0;points=[];" vertex="1" connectable="0" parent="WOW-F0cY4UlkzFkeSrk8-8">
          <mxGeometry x="-0.3405" y="-1" relative="1" as="geometry">
            <mxPoint x="-8" y="-1" as="offset" />
          </mxGeometry>
        </mxCell>
        <mxCell id="WOW-F0cY4UlkzFkeSrk8-3" value="A" style="ellipse;whiteSpace=wrap;html=1;aspect=fixed;fontSize=23;" vertex="1" parent="1">
          <mxGeometry x="345" y="180" width="90" height="90" as="geometry" />
        </mxCell>
        <mxCell id="WOW-F0cY4UlkzFkeSrk8-17" style="edgeStyle=orthogonalEdgeStyle;rounded=0;orthogonalLoop=1;jettySize=auto;html=1;entryX=0.5;entryY=0;entryDx=0;entryDy=0;" edge="1" parent="1" source="WOW-F0cY4UlkzFkeSrk8-4" target="WOW-F0cY4UlkzFkeSrk8-34">
          <mxGeometry relative="1" as="geometry" />
        </mxCell>
        <mxCell id="WOW-F0cY4UlkzFkeSrk8-4" value="B" style="ellipse;whiteSpace=wrap;html=1;aspect=fixed;strokeColor=default;fontSize=23;" vertex="1" parent="1">
          <mxGeometry x="200" y="340" width="80" height="80" as="geometry" />
        </mxCell>
        <mxCell id="WOW-F0cY4UlkzFkeSrk8-11" style="edgeStyle=orthogonalEdgeStyle;rounded=0;orthogonalLoop=1;jettySize=auto;html=1;entryX=0.5;entryY=0;entryDx=0;entryDy=0;" edge="1" parent="1" source="WOW-F0cY4UlkzFkeSrk8-7" target="WOW-F0cY4UlkzFkeSrk8-10">
          <mxGeometry relative="1" as="geometry" />
        </mxCell>
        <mxCell id="WOW-F0cY4UlkzFkeSrk8-12" value="True" style="edgeLabel;html=1;align=center;verticalAlign=middle;resizable=0;points=[];" vertex="1" connectable="0" parent="WOW-F0cY4UlkzFkeSrk8-11">
          <mxGeometry x="-0.3818" relative="1" as="geometry">
            <mxPoint x="14" as="offset" />
          </mxGeometry>
        </mxCell>
        <mxCell id="WOW-F0cY4UlkzFkeSrk8-14" style="edgeStyle=orthogonalEdgeStyle;rounded=0;orthogonalLoop=1;jettySize=auto;html=1;" edge="1" parent="1" source="WOW-F0cY4UlkzFkeSrk8-7" target="WOW-F0cY4UlkzFkeSrk8-13">
          <mxGeometry relative="1" as="geometry" />
        </mxCell>
        <mxCell id="WOW-F0cY4UlkzFkeSrk8-15" value="False" style="edgeLabel;html=1;align=center;verticalAlign=middle;resizable=0;points=[];" vertex="1" connectable="0" parent="WOW-F0cY4UlkzFkeSrk8-14">
          <mxGeometry x="-0.1846" y="-1" relative="1" as="geometry">
            <mxPoint x="-21" y="-1" as="offset" />
          </mxGeometry>
        </mxCell>
        <mxCell id="WOW-F0cY4UlkzFkeSrk8-7" value="&lt;font style=&quot;font-size: 23px;&quot;&gt;C&lt;/font&gt;" style="ellipse;whiteSpace=wrap;html=1;aspect=fixed;" vertex="1" parent="1">
          <mxGeometry x="520" y="250" width="80" height="80" as="geometry" />
        </mxCell>
        <mxCell id="WOW-F0cY4UlkzFkeSrk8-18" style="edgeStyle=orthogonalEdgeStyle;rounded=0;orthogonalLoop=1;jettySize=auto;html=1;entryX=1;entryY=0;entryDx=0;entryDy=0;" edge="1" parent="1" source="WOW-F0cY4UlkzFkeSrk8-10" target="WOW-F0cY4UlkzFkeSrk8-34">
          <mxGeometry relative="1" as="geometry" />
        </mxCell>
        <mxCell id="WOW-F0cY4UlkzFkeSrk8-10" value="&lt;font style=&quot;font-size: 23px;&quot;&gt;D&lt;/font&gt;" style="ellipse;whiteSpace=wrap;html=1;aspect=fixed;strokeColor=#000000;" vertex="1" parent="1">
          <mxGeometry x="420" y="370" width="80" height="80" as="geometry" />
        </mxCell>
        <mxCell id="WOW-F0cY4UlkzFkeSrk8-19" style="edgeStyle=orthogonalEdgeStyle;rounded=0;orthogonalLoop=1;jettySize=auto;html=1;entryX=1;entryY=0.5;entryDx=0;entryDy=0;" edge="1" parent="1" source="WOW-F0cY4UlkzFkeSrk8-13" target="WOW-F0cY4UlkzFkeSrk8-34">
          <mxGeometry relative="1" as="geometry">
            <Array as="points">
              <mxPoint x="650" y="510" />
            </Array>
          </mxGeometry>
        </mxCell>
        <mxCell id="WOW-F0cY4UlkzFkeSrk8-13" value="&lt;font style=&quot;font-size: 23px;&quot;&gt;E&lt;/font&gt;" style="ellipse;whiteSpace=wrap;html=1;aspect=fixed;strokeColor=#000000;" vertex="1" parent="1">
          <mxGeometry x="610" y="370" width="90" height="90" as="geometry" />
        </mxCell>
        <mxCell id="WOW-F0cY4UlkzFkeSrk8-55" value="" style="edgeStyle=orthogonalEdgeStyle;rounded=0;orthogonalLoop=1;jettySize=auto;html=1;" edge="1" parent="1" source="WOW-F0cY4UlkzFkeSrk8-34" target="WOW-F0cY4UlkzFkeSrk8-54">
          <mxGeometry relative="1" as="geometry" />
        </mxCell>
        <mxCell id="WOW-F0cY4UlkzFkeSrk8-34" value="&lt;font style=&quot;font-size: 23px;&quot;&gt;F&lt;/font&gt;" style="ellipse;whiteSpace=wrap;html=1;aspect=fixed;" vertex="1" parent="1">
          <mxGeometry x="290" y="470" width="80" height="80" as="geometry" />
        </mxCell>
        <mxCell id="WOW-F0cY4UlkzFkeSrk8-44" style="edgeStyle=orthogonalEdgeStyle;rounded=0;orthogonalLoop=1;jettySize=auto;html=1;" edge="1" parent="1" target="WOW-F0cY4UlkzFkeSrk8-41">
          <mxGeometry relative="1" as="geometry">
            <mxPoint x="170" y="715" as="sourcePoint" />
          </mxGeometry>
        </mxCell>
        <mxCell id="WOW-F0cY4UlkzFkeSrk8-45" value="True" style="edgeLabel;html=1;align=center;verticalAlign=middle;resizable=0;points=[];" vertex="1" connectable="0" parent="WOW-F0cY4UlkzFkeSrk8-44">
          <mxGeometry x="-0.7262" y="-1" relative="1" as="geometry">
            <mxPoint as="offset" />
          </mxGeometry>
        </mxCell>
        <mxCell id="WOW-F0cY4UlkzFkeSrk8-46" style="edgeStyle=orthogonalEdgeStyle;rounded=0;orthogonalLoop=1;jettySize=auto;html=1;entryX=0.5;entryY=0;entryDx=0;entryDy=0;" edge="1" parent="1" target="WOW-F0cY4UlkzFkeSrk8-42">
          <mxGeometry relative="1" as="geometry">
            <mxPoint x="250" y="715" as="sourcePoint" />
          </mxGeometry>
        </mxCell>
        <mxCell id="WOW-F0cY4UlkzFkeSrk8-47" value="False" style="edgeLabel;html=1;align=center;verticalAlign=middle;resizable=0;points=[];" vertex="1" connectable="0" parent="WOW-F0cY4UlkzFkeSrk8-46">
          <mxGeometry x="-0.6087" y="-1" relative="1" as="geometry">
            <mxPoint as="offset" />
          </mxGeometry>
        </mxCell>
        <mxCell id="WOW-F0cY4UlkzFkeSrk8-59" style="edgeStyle=orthogonalEdgeStyle;rounded=0;orthogonalLoop=1;jettySize=auto;html=1;entryX=0.975;entryY=0.288;entryDx=0;entryDy=0;entryPerimeter=0;" edge="1" parent="1" source="WOW-F0cY4UlkzFkeSrk8-41" target="WOW-F0cY4UlkzFkeSrk8-54">
          <mxGeometry relative="1" as="geometry">
            <mxPoint x="165" y="935" as="targetPoint" />
            <Array as="points">
              <mxPoint x="90" y="935" />
              <mxPoint x="570" y="935" />
              <mxPoint x="570" y="603" />
            </Array>
          </mxGeometry>
        </mxCell>
        <mxCell id="WOW-F0cY4UlkzFkeSrk8-41" value="I" style="ellipse;whiteSpace=wrap;html=1;aspect=fixed;fontSize=23;" vertex="1" parent="1">
          <mxGeometry x="50" y="765" width="80" height="80" as="geometry" />
        </mxCell>
        <mxCell id="WOW-F0cY4UlkzFkeSrk8-60" style="edgeStyle=orthogonalEdgeStyle;rounded=0;orthogonalLoop=1;jettySize=auto;html=1;entryX=1.025;entryY=0.65;entryDx=0;entryDy=0;exitX=0.5;exitY=1;exitDx=0;exitDy=0;entryPerimeter=0;" edge="1" parent="1" source="WOW-F0cY4UlkzFkeSrk8-42" target="WOW-F0cY4UlkzFkeSrk8-54">
          <mxGeometry relative="1" as="geometry">
            <mxPoint x="245" y="935" as="targetPoint" />
            <Array as="points">
              <mxPoint x="305" y="890" />
              <mxPoint x="520" y="890" />
              <mxPoint x="520" y="632" />
            </Array>
          </mxGeometry>
        </mxCell>
        <mxCell id="WOW-F0cY4UlkzFkeSrk8-42" value="J" style="ellipse;whiteSpace=wrap;html=1;aspect=fixed;fontSize=23;" vertex="1" parent="1">
          <mxGeometry x="265" y="765" width="80" height="80" as="geometry" />
        </mxCell>
        <mxCell id="WOW-F0cY4UlkzFkeSrk8-50" value="i++" style="text;html=1;align=center;verticalAlign=middle;resizable=0;points=[];autosize=1;strokeColor=none;fillColor=none;" vertex="1" parent="1">
          <mxGeometry x="265" y="850" width="40" height="30" as="geometry" />
        </mxCell>
        <mxCell id="WOW-F0cY4UlkzFkeSrk8-62" style="edgeStyle=orthogonalEdgeStyle;rounded=0;orthogonalLoop=1;jettySize=auto;html=1;" edge="1" parent="1" source="WOW-F0cY4UlkzFkeSrk8-54" target="WOW-F0cY4UlkzFkeSrk8-57">
          <mxGeometry relative="1" as="geometry" />
        </mxCell>
        <mxCell id="WOW-F0cY4UlkzFkeSrk8-63" value="True" style="edgeLabel;html=1;align=center;verticalAlign=middle;resizable=0;points=[];" vertex="1" connectable="0" parent="WOW-F0cY4UlkzFkeSrk8-62">
          <mxGeometry x="-0.6667" y="2" relative="1" as="geometry">
            <mxPoint as="offset" />
          </mxGeometry>
        </mxCell>
        <mxCell id="WOW-F0cY4UlkzFkeSrk8-66" style="edgeStyle=orthogonalEdgeStyle;rounded=0;orthogonalLoop=1;jettySize=auto;html=1;entryX=0;entryY=0.5;entryDx=0;entryDy=0;exitX=0.5;exitY=1;exitDx=0;exitDy=0;" edge="1" parent="1" source="WOW-F0cY4UlkzFkeSrk8-54" target="WOW-F0cY4UlkzFkeSrk8-65">
          <mxGeometry relative="1" as="geometry" />
        </mxCell>
        <mxCell id="WOW-F0cY4UlkzFkeSrk8-67" value="False" style="edgeLabel;html=1;align=center;verticalAlign=middle;resizable=0;points=[];" vertex="1" connectable="0" parent="WOW-F0cY4UlkzFkeSrk8-66">
          <mxGeometry x="-0.5121" y="-2" relative="1" as="geometry">
            <mxPoint as="offset" />
          </mxGeometry>
        </mxCell>
        <mxCell id="WOW-F0cY4UlkzFkeSrk8-54" value="G" style="ellipse;whiteSpace=wrap;html=1;aspect=fixed;fontSize=23;" vertex="1" parent="1">
          <mxGeometry x="290" y="580" width="80" height="80" as="geometry" />
        </mxCell>
        <mxCell id="WOW-F0cY4UlkzFkeSrk8-56" value="i &amp;lt; number" style="text;html=1;align=center;verticalAlign=middle;resizable=0;points=[];autosize=1;strokeColor=none;fillColor=none;" vertex="1" parent="1">
          <mxGeometry x="210" y="580" width="80" height="30" as="geometry" />
        </mxCell>
        <mxCell id="WOW-F0cY4UlkzFkeSrk8-57" value="H" style="ellipse;whiteSpace=wrap;html=1;aspect=fixed;fontSize=23;" vertex="1" parent="1">
          <mxGeometry x="170" y="670" width="80" height="80" as="geometry" />
        </mxCell>
        <mxCell id="WOW-F0cY4UlkzFkeSrk8-58" value="i % 2 == 0" style="text;html=1;align=center;verticalAlign=middle;resizable=0;points=[];autosize=1;strokeColor=none;fillColor=none;" vertex="1" parent="1">
          <mxGeometry x="90" y="670" width="80" height="30" as="geometry" />
        </mxCell>
        <mxCell id="WOW-F0cY4UlkzFkeSrk8-65" value="K" style="ellipse;whiteSpace=wrap;html=1;aspect=fixed;fontSize=23;" vertex="1" parent="1">
          <mxGeometry x="400" y="660" width="80" height="80" as="geometry" />
        </mxCell>
        <mxCell id="WOW-F0cY4UlkzFkeSrk8-68" value="i++" style="text;html=1;align=center;verticalAlign=middle;resizable=0;points=[];autosize=1;strokeColor=none;fillColor=none;" vertex="1" parent="1">
          <mxGeometry x="50" y="845" width="40" height="30" as="geometry" />
        </mxCell>
        <mxCell id="WOW-F0cY4UlkzFkeSrk8-69" value="number % 2 == 0" style="text;html=1;align=center;verticalAlign=middle;resizable=0;points=[];autosize=1;strokeColor=none;fillColor=none;" vertex="1" parent="1">
          <mxGeometry x="245" y="160" width="120" height="30" as="geometry" />
        </mxCell>
        <mxCell id="WOW-F0cY4UlkzFkeSrk8-70" value="&quot;even number&quot;" style="text;html=1;align=center;verticalAlign=middle;resizable=0;points=[];autosize=1;strokeColor=none;fillColor=none;" vertex="1" parent="1">
          <mxGeometry x="90" y="365" width="100" height="30" as="geometry" />
        </mxCell>
        <mxCell id="WOW-F0cY4UlkzFkeSrk8-71" value="number % 3 == 0" style="text;html=1;align=center;verticalAlign=middle;resizable=0;points=[];autosize=1;strokeColor=none;fillColor=none;" vertex="1" parent="1">
          <mxGeometry x="590" y="240" width="120" height="30" as="geometry" />
        </mxCell>
        <mxCell id="WOW-F0cY4UlkzFkeSrk8-72" value="&quot;multiple of 3&quot;" style="text;html=1;align=center;verticalAlign=middle;resizable=0;points=[];autosize=1;strokeColor=none;fillColor=none;" vertex="1" parent="1">
          <mxGeometry x="400" y="448" width="100" height="30" as="geometry" />
        </mxCell>
        <mxCell id="WOW-F0cY4UlkzFkeSrk8-73" value=" &quot;Neither even nor a multiple of 3&quot;" style="text;html=1;align=center;verticalAlign=middle;resizable=0;points=[];autosize=1;strokeColor=none;fillColor=none;" vertex="1" parent="1">
          <mxGeometry x="660" y="460" width="200" height="30" as="geometry" />
        </mxCell>
        <mxCell id="WOW-F0cY4UlkzFkeSrk8-74" value="System.out.println(&quot;Message: &quot; + message);" style="text;html=1;align=center;verticalAlign=middle;resizable=0;points=[];autosize=1;strokeColor=none;fillColor=none;" vertex="1" parent="1">
          <mxGeometry x="30" y="495" width="260" height="30" as="geometry" />
        </mxCell>
      </root>
    </mxGraphModel>
  </diagram>
</mxfile>
